<mxfile host="app.diagrams.net" modified="2021-07-26T19:37:55.654Z" agent="5.0 (X11; Linux x86_64) AppleWebKit/537.36 (KHTML, like Gecko) Chrome/91.0.4472.114 Safari/537.36" etag="6mmGB6rIdRTZHKpYltLL" version="14.8.0" type="github">
  <diagram id="JyylFsv96L5wBdjRMBS9" name="Page-1">
    <mxGraphModel dx="470" dy="760" grid="1" gridSize="10" guides="1" tooltips="1" connect="1" arrows="1" fold="1" page="1" pageScale="1" pageWidth="827" pageHeight="1169" math="0" shadow="0">
      <root>
        <mxCell id="0" />
        <mxCell id="1" parent="0" />
        <mxCell id="P63ahs3XQpRorZ7CA4QL-1" value="" style="rounded=0;whiteSpace=wrap;html=1;strokeWidth=2;fillColor=#fff2cc;strokeColor=#d6b656;" vertex="1" parent="1">
          <mxGeometry x="160" y="240" width="510" height="110" as="geometry" />
        </mxCell>
        <mxCell id="P63ahs3XQpRorZ7CA4QL-2" value="&lt;b&gt;&lt;font style=&quot;font-size: 18px&quot;&gt;表现层&lt;/font&gt;&lt;/b&gt;" style="text;html=1;strokeColor=none;fillColor=none;align=center;verticalAlign=middle;whiteSpace=wrap;rounded=0;" vertex="1" parent="1">
          <mxGeometry x="370" y="250" width="80" height="20" as="geometry" />
        </mxCell>
        <mxCell id="P63ahs3XQpRorZ7CA4QL-3" value="&lt;font size=&quot;1&quot;&gt;&lt;b style=&quot;font-size: 15px&quot;&gt;页面快速搭建&lt;/b&gt;&lt;/font&gt;" style="rounded=0;whiteSpace=wrap;html=1;strokeWidth=2;dashed=1;dashPattern=1 1;" vertex="1" parent="1">
          <mxGeometry x="180" y="280" width="230" height="40" as="geometry" />
        </mxCell>
        <mxCell id="P63ahs3XQpRorZ7CA4QL-5" value="&lt;span style=&quot;font-size: 15px&quot;&gt;&lt;b&gt;客户端（定制化页面）&lt;/b&gt;&lt;/span&gt;" style="rounded=0;whiteSpace=wrap;html=1;strokeWidth=2;dashed=1;dashPattern=1 1;" vertex="1" parent="1">
          <mxGeometry x="420" y="280" width="230" height="40" as="geometry" />
        </mxCell>
        <mxCell id="P63ahs3XQpRorZ7CA4QL-7" value="" style="rounded=0;whiteSpace=wrap;html=1;strokeWidth=2;fillColor=#fff2cc;strokeColor=#d6b656;" vertex="1" parent="1">
          <mxGeometry x="160" y="370" width="510" height="120" as="geometry" />
        </mxCell>
        <mxCell id="P63ahs3XQpRorZ7CA4QL-8" value="&lt;span style=&quot;font-size: 18px&quot;&gt;&lt;b&gt;触达层&lt;/b&gt;&lt;/span&gt;" style="text;html=1;strokeColor=none;fillColor=none;align=center;verticalAlign=middle;whiteSpace=wrap;rounded=0;" vertex="1" parent="1">
          <mxGeometry x="370" y="380" width="80" height="20" as="geometry" />
        </mxCell>
        <mxCell id="P63ahs3XQpRorZ7CA4QL-9" value="" style="rounded=0;whiteSpace=wrap;html=1;strokeWidth=2;dashed=1;dashPattern=1 1;" vertex="1" parent="1">
          <mxGeometry x="180" y="410" width="230" height="70" as="geometry" />
        </mxCell>
        <mxCell id="P63ahs3XQpRorZ7CA4QL-10" value="" style="rounded=0;whiteSpace=wrap;html=1;strokeWidth=2;dashed=1;dashPattern=1 1;" vertex="1" parent="1">
          <mxGeometry x="420" y="410" width="230" height="70" as="geometry" />
        </mxCell>
        <mxCell id="P63ahs3XQpRorZ7CA4QL-11" value="" style="rounded=0;whiteSpace=wrap;html=1;strokeWidth=2;fillColor=#fff2cc;strokeColor=#d6b656;" vertex="1" parent="1">
          <mxGeometry x="160" y="510" width="510" height="190" as="geometry" />
        </mxCell>
        <mxCell id="P63ahs3XQpRorZ7CA4QL-12" value="&lt;span style=&quot;font-size: 18px&quot;&gt;&lt;b&gt;规则层&lt;/b&gt;&lt;/span&gt;" style="text;html=1;strokeColor=none;fillColor=none;align=center;verticalAlign=middle;whiteSpace=wrap;rounded=0;" vertex="1" parent="1">
          <mxGeometry x="370" y="520" width="80" height="20" as="geometry" />
        </mxCell>
        <mxCell id="P63ahs3XQpRorZ7CA4QL-13" value="&lt;b&gt;&lt;font style=&quot;font-size: 14px&quot;&gt;基础营销规则&lt;/font&gt;&lt;/b&gt;" style="rounded=0;whiteSpace=wrap;html=1;strokeWidth=2;dashed=1;dashPattern=1 1;" vertex="1" parent="1">
          <mxGeometry x="178.5" y="550" width="463" height="30" as="geometry" />
        </mxCell>
        <mxCell id="P63ahs3XQpRorZ7CA4QL-15" value="&lt;font style=&quot;font-size: 14px&quot;&gt;&lt;b&gt;主动&lt;/b&gt;&lt;/font&gt;" style="text;html=1;strokeColor=none;fillColor=none;align=center;verticalAlign=middle;whiteSpace=wrap;rounded=0;dashed=1;dashPattern=1 1;" vertex="1" parent="1">
          <mxGeometry x="270" y="415" width="40" height="15" as="geometry" />
        </mxCell>
        <mxCell id="P63ahs3XQpRorZ7CA4QL-16" value="&lt;font style=&quot;font-size: 14px&quot;&gt;&lt;b&gt;被动&lt;/b&gt;&lt;/font&gt;" style="text;html=1;strokeColor=none;fillColor=none;align=center;verticalAlign=middle;whiteSpace=wrap;rounded=0;dashed=1;dashPattern=1 1;" vertex="1" parent="1">
          <mxGeometry x="515" y="415" width="40" height="15" as="geometry" />
        </mxCell>
        <mxCell id="P63ahs3XQpRorZ7CA4QL-17" value="&lt;b&gt;客户行为&lt;/b&gt;" style="rounded=1;whiteSpace=wrap;html=1;dashed=1;dashPattern=1 1;strokeWidth=2;fillColor=#dae8fc;strokeColor=#6c8ebf;" vertex="1" parent="1">
          <mxGeometry x="190" y="440" width="100" height="30" as="geometry" />
        </mxCell>
        <mxCell id="P63ahs3XQpRorZ7CA4QL-18" value="&lt;b&gt;业务行为&lt;/b&gt;" style="rounded=1;whiteSpace=wrap;html=1;dashed=1;dashPattern=1 1;strokeWidth=2;fillColor=#dae8fc;strokeColor=#6c8ebf;" vertex="1" parent="1">
          <mxGeometry x="300" y="440" width="100" height="30" as="geometry" />
        </mxCell>
        <mxCell id="P63ahs3XQpRorZ7CA4QL-19" value="&lt;b&gt;PUSH&lt;/b&gt;" style="rounded=1;whiteSpace=wrap;html=1;dashed=1;dashPattern=1 1;strokeWidth=2;fillColor=#dae8fc;strokeColor=#6c8ebf;" vertex="1" parent="1">
          <mxGeometry x="440" y="440" width="50" height="30" as="geometry" />
        </mxCell>
        <mxCell id="P63ahs3XQpRorZ7CA4QL-22" value="&lt;b&gt;通知&lt;/b&gt;" style="rounded=1;whiteSpace=wrap;html=1;dashed=1;dashPattern=1 1;strokeWidth=2;fillColor=#dae8fc;strokeColor=#6c8ebf;" vertex="1" parent="1">
          <mxGeometry x="510" y="440" width="50" height="30" as="geometry" />
        </mxCell>
        <mxCell id="P63ahs3XQpRorZ7CA4QL-23" value="&lt;b&gt;短信&lt;/b&gt;" style="rounded=1;whiteSpace=wrap;html=1;dashed=1;dashPattern=1 1;strokeWidth=2;fillColor=#dae8fc;strokeColor=#6c8ebf;" vertex="1" parent="1">
          <mxGeometry x="580" y="440" width="50" height="30" as="geometry" />
        </mxCell>
        <mxCell id="P63ahs3XQpRorZ7CA4QL-24" value="&lt;b&gt;&lt;font style=&quot;font-size: 14px&quot;&gt;业务规则引擎&lt;/font&gt;&lt;/b&gt;" style="rounded=0;whiteSpace=wrap;html=1;strokeWidth=2;dashed=1;dashPattern=1 1;" vertex="1" parent="1">
          <mxGeometry x="178.5" y="660" width="463" height="30" as="geometry" />
        </mxCell>
        <mxCell id="P63ahs3XQpRorZ7CA4QL-25" value="" style="rounded=0;whiteSpace=wrap;html=1;strokeWidth=2;dashed=1;dashPattern=1 1;" vertex="1" parent="1">
          <mxGeometry x="178.5" y="590" width="463" height="60" as="geometry" />
        </mxCell>
        <mxCell id="P63ahs3XQpRorZ7CA4QL-26" value="&lt;b&gt;类型&lt;/b&gt;" style="rounded=1;whiteSpace=wrap;html=1;dashed=1;dashPattern=1 1;strokeWidth=2;fillColor=#dae8fc;strokeColor=#6c8ebf;" vertex="1" parent="1">
          <mxGeometry x="190" y="605" width="90" height="35" as="geometry" />
        </mxCell>
        <mxCell id="P63ahs3XQpRorZ7CA4QL-27" value="&lt;b&gt;场景&lt;/b&gt;" style="rounded=1;whiteSpace=wrap;html=1;dashed=1;dashPattern=1 1;strokeWidth=2;fillColor=#dae8fc;strokeColor=#6c8ebf;" vertex="1" parent="1">
          <mxGeometry x="300" y="605" width="90" height="35" as="geometry" />
        </mxCell>
        <mxCell id="P63ahs3XQpRorZ7CA4QL-28" value="&lt;b&gt;限次&lt;/b&gt;" style="rounded=1;whiteSpace=wrap;html=1;dashed=1;dashPattern=1 1;strokeWidth=2;fillColor=#dae8fc;strokeColor=#6c8ebf;" vertex="1" parent="1">
          <mxGeometry x="430" y="605" width="90" height="35" as="geometry" />
        </mxCell>
        <mxCell id="P63ahs3XQpRorZ7CA4QL-29" value="&lt;b&gt;风控&lt;/b&gt;" style="rounded=1;whiteSpace=wrap;html=1;dashed=1;dashPattern=1 1;strokeWidth=2;fillColor=#dae8fc;strokeColor=#6c8ebf;" vertex="1" parent="1">
          <mxGeometry x="540" y="605" width="90" height="35" as="geometry" />
        </mxCell>
        <mxCell id="P63ahs3XQpRorZ7CA4QL-30" value="" style="rounded=0;whiteSpace=wrap;html=1;strokeWidth=2;fillColor=#fff2cc;strokeColor=#d6b656;" vertex="1" parent="1">
          <mxGeometry x="160" y="720" width="510" height="250" as="geometry" />
        </mxCell>
        <mxCell id="P63ahs3XQpRorZ7CA4QL-31" value="&lt;span style=&quot;font-size: 18px&quot;&gt;&lt;b&gt;奖励层&lt;/b&gt;&lt;/span&gt;" style="text;html=1;strokeColor=none;fillColor=none;align=center;verticalAlign=middle;whiteSpace=wrap;rounded=0;" vertex="1" parent="1">
          <mxGeometry x="380" y="730" width="80" height="20" as="geometry" />
        </mxCell>
        <mxCell id="P63ahs3XQpRorZ7CA4QL-34" value="" style="rounded=0;whiteSpace=wrap;html=1;strokeWidth=2;dashed=1;dashPattern=1 1;" vertex="1" parent="1">
          <mxGeometry x="183.5" y="760" width="463" height="60" as="geometry" />
        </mxCell>
        <mxCell id="P63ahs3XQpRorZ7CA4QL-36" value="&lt;b&gt;现金红包&lt;/b&gt;" style="rounded=1;whiteSpace=wrap;html=1;dashed=1;dashPattern=1 1;strokeWidth=2;fillColor=#dae8fc;strokeColor=#6c8ebf;" vertex="1" parent="1">
          <mxGeometry x="375" y="772.5" width="70" height="35" as="geometry" />
        </mxCell>
        <mxCell id="P63ahs3XQpRorZ7CA4QL-39" value="&lt;b&gt;虚拟资格&lt;/b&gt;" style="rounded=1;whiteSpace=wrap;html=1;dashed=1;dashPattern=1 1;strokeWidth=2;fillColor=#dae8fc;strokeColor=#6c8ebf;" vertex="1" parent="1">
          <mxGeometry x="555" y="772.5" width="70" height="35" as="geometry" />
        </mxCell>
        <mxCell id="P63ahs3XQpRorZ7CA4QL-40" value="&lt;b&gt;积分&lt;/b&gt;" style="rounded=1;whiteSpace=wrap;html=1;dashed=1;dashPattern=1 1;strokeWidth=2;fillColor=#dae8fc;strokeColor=#6c8ebf;" vertex="1" parent="1">
          <mxGeometry x="470" y="772.5" width="70" height="35" as="geometry" />
        </mxCell>
        <mxCell id="P63ahs3XQpRorZ7CA4QL-41" value="&lt;b&gt;优惠券&lt;/b&gt;" style="rounded=1;whiteSpace=wrap;html=1;dashed=1;dashPattern=1 1;strokeWidth=2;fillColor=#dae8fc;strokeColor=#6c8ebf;" vertex="1" parent="1">
          <mxGeometry x="280" y="772.5" width="70" height="35" as="geometry" />
        </mxCell>
        <mxCell id="P63ahs3XQpRorZ7CA4QL-42" value="&lt;font style=&quot;font-size: 14px&quot;&gt;&lt;b&gt;营销类&lt;/b&gt;&lt;/font&gt;" style="text;html=1;strokeColor=none;fillColor=none;align=center;verticalAlign=middle;whiteSpace=wrap;rounded=0;dashed=1;dashPattern=1 1;" vertex="1" parent="1">
          <mxGeometry x="210" y="782.5" width="45" height="15" as="geometry" />
        </mxCell>
        <mxCell id="P63ahs3XQpRorZ7CA4QL-43" style="edgeStyle=orthogonalEdgeStyle;rounded=0;orthogonalLoop=1;jettySize=auto;html=1;exitX=0.75;exitY=1;exitDx=0;exitDy=0;entryX=0.75;entryY=0;entryDx=0;entryDy=0;" edge="1" parent="1" source="P63ahs3XQpRorZ7CA4QL-42" target="P63ahs3XQpRorZ7CA4QL-42">
          <mxGeometry relative="1" as="geometry" />
        </mxCell>
        <mxCell id="P63ahs3XQpRorZ7CA4QL-44" value="" style="rounded=0;whiteSpace=wrap;html=1;strokeWidth=2;dashed=1;dashPattern=1 1;" vertex="1" parent="1">
          <mxGeometry x="182" y="830" width="463" height="60" as="geometry" />
        </mxCell>
        <mxCell id="P63ahs3XQpRorZ7CA4QL-45" value="&lt;b&gt;邮件&lt;/b&gt;" style="rounded=1;whiteSpace=wrap;html=1;dashed=1;dashPattern=1 1;strokeWidth=2;fillColor=#dae8fc;strokeColor=#6c8ebf;" vertex="1" parent="1">
          <mxGeometry x="373.5" y="842.5" width="70" height="35" as="geometry" />
        </mxCell>
        <mxCell id="P63ahs3XQpRorZ7CA4QL-46" value="&lt;b&gt;模板消息&lt;/b&gt;" style="rounded=1;whiteSpace=wrap;html=1;dashed=1;dashPattern=1 1;strokeWidth=2;fillColor=#dae8fc;strokeColor=#6c8ebf;" vertex="1" parent="1">
          <mxGeometry x="553.5" y="842.5" width="70" height="35" as="geometry" />
        </mxCell>
        <mxCell id="P63ahs3XQpRorZ7CA4QL-47" value="&lt;b&gt;短信&lt;/b&gt;" style="rounded=1;whiteSpace=wrap;html=1;dashed=1;dashPattern=1 1;strokeWidth=2;fillColor=#dae8fc;strokeColor=#6c8ebf;" vertex="1" parent="1">
          <mxGeometry x="468.5" y="842.5" width="70" height="35" as="geometry" />
        </mxCell>
        <mxCell id="P63ahs3XQpRorZ7CA4QL-48" value="&lt;b&gt;PUSH&lt;/b&gt;" style="rounded=1;whiteSpace=wrap;html=1;dashed=1;dashPattern=1 1;strokeWidth=2;fillColor=#dae8fc;strokeColor=#6c8ebf;" vertex="1" parent="1">
          <mxGeometry x="278.5" y="842.5" width="70" height="35" as="geometry" />
        </mxCell>
        <mxCell id="P63ahs3XQpRorZ7CA4QL-49" value="&lt;font style=&quot;font-size: 14px&quot;&gt;&lt;b&gt;通知类&lt;/b&gt;&lt;/font&gt;" style="text;html=1;strokeColor=none;fillColor=none;align=center;verticalAlign=middle;whiteSpace=wrap;rounded=0;dashed=1;dashPattern=1 1;" vertex="1" parent="1">
          <mxGeometry x="208.5" y="852.5" width="45" height="15" as="geometry" />
        </mxCell>
        <mxCell id="P63ahs3XQpRorZ7CA4QL-50" value="" style="rounded=0;whiteSpace=wrap;html=1;strokeWidth=2;dashed=1;dashPattern=1 1;" vertex="1" parent="1">
          <mxGeometry x="180" y="900" width="463" height="60" as="geometry" />
        </mxCell>
        <mxCell id="P63ahs3XQpRorZ7CA4QL-51" value="&lt;b&gt;理财体验金&lt;/b&gt;" style="rounded=1;whiteSpace=wrap;html=1;dashed=1;dashPattern=1 1;strokeWidth=2;fillColor=#dae8fc;strokeColor=#6c8ebf;" vertex="1" parent="1">
          <mxGeometry x="371.5" y="912.5" width="70" height="35" as="geometry" />
        </mxCell>
        <mxCell id="P63ahs3XQpRorZ7CA4QL-52" value="&lt;b&gt;标签&lt;/b&gt;" style="rounded=1;whiteSpace=wrap;html=1;dashed=1;dashPattern=1 1;strokeWidth=2;fillColor=#dae8fc;strokeColor=#6c8ebf;" vertex="1" parent="1">
          <mxGeometry x="551.5" y="912.5" width="70" height="35" as="geometry" />
        </mxCell>
        <mxCell id="P63ahs3XQpRorZ7CA4QL-53" value="&lt;b&gt;O2O&lt;/b&gt;" style="rounded=1;whiteSpace=wrap;html=1;dashed=1;dashPattern=1 1;strokeWidth=2;fillColor=#dae8fc;strokeColor=#6c8ebf;" vertex="1" parent="1">
          <mxGeometry x="466.5" y="912.5" width="70" height="35" as="geometry" />
        </mxCell>
        <mxCell id="P63ahs3XQpRorZ7CA4QL-54" value="&lt;b&gt;商品&lt;/b&gt;" style="rounded=1;whiteSpace=wrap;html=1;dashed=1;dashPattern=1 1;strokeWidth=2;fillColor=#dae8fc;strokeColor=#6c8ebf;" vertex="1" parent="1">
          <mxGeometry x="276.5" y="912.5" width="70" height="35" as="geometry" />
        </mxCell>
        <mxCell id="P63ahs3XQpRorZ7CA4QL-55" value="&lt;font style=&quot;font-size: 14px&quot;&gt;&lt;b&gt;业务类&lt;/b&gt;&lt;/font&gt;" style="text;html=1;strokeColor=none;fillColor=none;align=center;verticalAlign=middle;whiteSpace=wrap;rounded=0;dashed=1;dashPattern=1 1;" vertex="1" parent="1">
          <mxGeometry x="206.5" y="922.5" width="45" height="15" as="geometry" />
        </mxCell>
      </root>
    </mxGraphModel>
  </diagram>
</mxfile>
